<?xml version="1.0" encoding="UTF-8" standalone="no"?>
<!-- Created with Inkscape (http://www.inkscape.org/) -->

<svg
   xmlns:dc="http://purl.org/dc/elements/1.1/"
   xmlns:cc="http://creativecommons.org/ns#"
   xmlns:rdf="http://www.w3.org/1999/02/22-rdf-syntax-ns#"
   xmlns:svg="http://www.w3.org/2000/svg"
   xmlns="http://www.w3.org/2000/svg"
   xmlns:sodipodi="http://sodipodi.sourceforge.net/DTD/sodipodi-0.dtd"
   xmlns:inkscape="http://www.inkscape.org/namespaces/inkscape"
   version="1.1"
   id="svg2"
   width="512"
   height="512"
   viewBox="0 0 512 512"
   sodipodi:docname="high_score.svg"
   inkscape:export-filename="C:\Users\SAM\Documents\python app\project\Py_predator\images\high_score.png"
   inkscape:export-xdpi="750"
   inkscape:export-ydpi="750"
   inkscape:version="0.92.3 (2405546, 2018-03-11)">
  <metadata
     id="metadata8">
    <rdf:RDF>
      <cc:Work
         rdf:about="">
        <dc:format>image/svg+xml</dc:format>
        <dc:type
           rdf:resource="http://purl.org/dc/dcmitype/StillImage" />
        <dc:title></dc:title>
      </cc:Work>
    </rdf:RDF>
  </metadata>
  <defs
     id="defs6" />
  <sodipodi:namedview
     pagecolor="#ffffff"
     bordercolor="#666666"
     borderopacity="1"
     objecttolerance="10"
     gridtolerance="10"
     guidetolerance="10"
     inkscape:pageopacity="0"
     inkscape:pageshadow="2"
     inkscape:window-width="1280"
     inkscape:window-height="961"
     id="namedview4"
     showgrid="false"
     inkscape:zoom="1.0523738"
     inkscape:cx="273.07579"
     inkscape:cy="245.5822"
     inkscape:window-x="-8"
     inkscape:window-y="-8"
     inkscape:window-maximized="1"
     inkscape:current-layer="g817" />
  <g
     id="g817"
     transform="matrix(0.79399251,0,0,0.76058589,55.113498,42.760469)">
    <path
       style="fill:#afcae3"
       d="m 182.65713,492.25 c -6.74775,-10.3125 -15.10232,-23.1375 -18.5657,-28.5 -3.46339,-5.3625 -6.63522,-9.75 -7.04852,-9.75 -0.4133,0 -14.76219,4.275 -31.88642,9.5 -17.12423,5.225 -31.81481,9.5 -32.645729,9.5 -0.830918,0 -1.50945,-0.7875 -1.507848,-1.75 0.0043,-2.55481 50.867227,-142.53689 52.292277,-143.91574 0.66265,-0.64116 4.68636,-1.48097 8.94159,-1.86625 6.30102,-0.57051 7.84014,-0.43114 8.29377,0.75101 0.30635,0.79834 -8.93978,27.65633 -20.54697,59.68442 -11.60718,32.0281 -20.96438,58.85325 -20.79378,59.61145 0.24571,1.09193 1.966,0.81787 8.27432,-1.31817 l 7.96413,-2.69672 17.74298,-49 c 19.6827,-54.35686 19.34833,-53.5 20.87685,-53.5 0.60002,0 3.55081,5.175 6.5573,11.5 3.00649,6.325 6.04462,11.5 6.7514,11.5 0.70677,0 9.26554,-3.6 19.0195,-8 9.75395,-4.4 18.22257,-8 18.81916,-8 1.76406,0 20.55321,18.97897 21.82226,22.04272 1.06054,2.56039 -1.01127,8.8235 -23.03508,69.63535 C 196.54542,513.43732 197.47513,511 196.01391,511 c -0.59847,0 -6.60902,-8.4375 -13.35678,-18.75 z m 130.92942,15.58808 C 309.21591,497.30409 264,371.10015 264,369.43508 264,367.31107 273.73991,357 275.74626,357 c 0.65086,0 1.59597,0.7875 2.10025,1.75 0.50428,0.9625 10.0278,26.95 21.16337,57.75 11.13556,30.8 20.45414,56.225 20.70794,56.5 0.65984,0.71495 4.77336,-4.64356 7.64698,-9.9614 L 329.81733,458.5 310.4106,405 c -10.67371,-29.425 -19.40761,-54.03594 -19.40867,-54.69098 -0.001,-0.65504 0.36503,-1.41778 0.81354,-1.69498 0.44851,-0.27719 7.75126,2.63446 16.22834,6.47034 8.47707,3.83588 15.9923,6.84861 16.70052,6.69497 0.70821,-0.15364 4.86771,-7.70435 9.24333,-16.77935 4.37561,-9.075 8.46371,-17.35391 9.08464,-18.39758 1.04112,-1.74991 2.03069,-1.84926 12.71601,-1.27662 7.32718,0.39268 12.04716,1.0903 12.83861,1.89758 1.47717,1.50672 52.36943,141.46503 52.3716,144.02662 8.1e-4,0.9625 -0.67836,1.75 -1.50928,1.75 -0.83092,0 -15.546,-4.28247 -32.70017,-9.51661 -17.15417,-5.23414 -31.57503,-9.38807 -32.04635,-9.23096 -0.47133,0.15711 -9.04375,12.84565 -19.04984,28.19677 -10.00608,15.35112 -18.76178,28.09469 -19.45711,28.31904 -0.7029,0.2268 -1.87917,-1.07421 -2.64922,-2.93016 z m -70.90597,-176.99885 -12.81943,-12.13886 -13.68057,6.30733 c -7.52432,3.46904 -15.03058,6.34895 -16.68058,6.39982 -2.89904,0.0894 -3.25197,-0.42482 -10.4873,-15.27906 l -7.48731,-15.37155 -6.51269,0.59693 c -3.58199,0.32831 -11.55003,0.89913 -17.70677,1.26849 l -11.19406,0.67156 -0.54595,-2.39694 c -0.30028,-1.31832 -1.22918,-9.12818 -2.06424,-17.35525 -0.83505,-8.22706 -1.89088,-15.3309 -2.34628,-15.7863 -0.4554,-0.4554 -7.40701,-2.66018 -15.44801,-4.89951 -8.041,-2.23933 -15.38699,-4.63234 -16.32442,-5.31781 -1.5833,-1.15773 -1.40447,-2.44485 2.51638,-18.11168 4.02658,-16.08933 4.13751,-16.92792 2.41072,-18.22459 -0.99554,-0.74757 -7.14284,-5.22997 -13.66067,-9.96089 -6.517829,-4.73091 -12.061501,-9.15126 -12.319271,-9.823 -0.257769,-0.67174 3.88601,-7.75747 9.2084,-15.74607 l 9.677071,-14.52473 -9.762869,-14.21595 c -7.644479,-11.13131 -9.547661,-14.56477 -8.771056,-15.82356 0.545496,-0.88418 6.127777,-5.33515 12.405065,-9.89102 16.75018,-12.1568 15.51829,-8.85016 10.62179,-28.51107 -3.55383,-14.269643 -3.96426,-16.929434 -2.73011,-17.692181 0.79888,-0.493738 8.21805,-2.777046 16.48705,-5.074017 8.26899,-2.296972 15.36117,-4.472133 15.76041,-4.833693 0.39923,-0.36156 1.50278,-8.216133 2.45233,-17.454607 1.3293,-12.933199 2.08248,-16.974715 3.27412,-17.568787 0.85122,-0.424359 8.74767,-0.215434 17.54767,0.464278 9.00525,0.695565 16.46598,0.859511 17.06589,0.375015 0.58624,-0.473453 4.12997,-7.372914 7.87495,-15.332134 3.74498,-7.959221 7.42295,-14.706882 8.17326,-14.994803 0.75031,-0.287921 6.43158,1.768841 12.62505,4.570581 6.19347,2.801741 13.23282,5.945243 15.643,6.985561 l 4.38215,1.891487 11.33946,-11.187777 c 14.93211,-14.7323839 13.97399,-14.7343645 28.81,0.05956 l 11.27933,11.247333 15.6773,-7.040129 c 8.62252,-3.872071 16.27596,-6.810405 17.00765,-6.529632 0.73168,0.280773 4.39117,7.015712 8.1322,14.966532 3.74103,7.950819 7.29414,14.853882 7.89581,15.340141 0.63763,0.515317 7.76807,0.368598 17.09395,-0.351732 8.8,-0.679712 16.70435,-0.884407 17.56523,-0.45488 1.21787,0.607651 1.93307,4.495095 3.2228,17.517462 0.91166,9.205077 2.00731,17.05542 2.43477,17.445209 0.42746,0.389788 7.54274,2.588046 15.81173,4.885018 8.269,2.296971 15.68817,4.580279 16.48705,5.074017 1.23415,0.762747 0.82372,3.422538 -2.73011,17.692178 -4.8965,19.66091 -6.12839,16.35427 10.62179,28.51107 6.27729,4.55587 11.85957,9.00684 12.40507,9.89102 0.7766,1.25879 -1.12658,4.69225 -8.77106,15.82356 l -9.76287,14.21595 9.67707,14.52473 c 5.32239,7.9886 9.46617,15.07433 9.2084,15.74607 -0.25777,0.67174 -5.80144,5.09209 -12.31927,9.823 -6.51783,4.73092 -12.66513,9.21332 -13.66067,9.96089 -1.72679,1.29667 -1.61586,2.13526 2.41072,18.22459 3.92085,15.66683 4.09968,16.95395 2.51638,18.11168 -0.93743,0.68547 -8.28342,3.07848 -16.32442,5.31781 -8.041,2.23933 -14.99261,4.44411 -15.44801,4.89951 -0.4554,0.4554 -1.51123,7.55924 -2.34628,15.7863 -0.83506,8.22707 -1.76396,16.03693 -2.06424,17.35525 l -0.54595,2.39694 -11.19406,-0.67156 c -6.15674,-0.36936 -14.12478,-0.94018 -17.70677,-1.26849 l -6.51269,-0.59693 -7.48731,15.37155 c -7.23533,14.85424 -7.58826,15.36843 -10.4873,15.27906 -1.65,-0.0509 -9.15436,-2.92993 -16.67636,-6.39791 l -13.67636,-6.30542 -12.63705,11.8979 c -6.95038,6.54385 -12.94602,12.00548 -13.32364,12.13695 -0.37763,0.13147 -6.45533,-5.22344 -13.50601,-11.89981 z M 268.5,278.89144 C 342.95395,269.76735 385.61524,190.85395 352.506,123.5 349.532,117.45 344.85078,109.54276 342.10329,105.92836 301.86448,52.993 224.48543,48.376049 178.42784,96.162386 133.14125,143.14878 139.50705,219.39153 192,258.71535 c 12.39949,9.28877 30.68994,17.05874 45.19753,19.20035 4.01636,0.5929 8.42747,1.24313 9.80247,1.44497 5.19659,0.76279 12.80076,0.59684 21.5,-0.46923 z M 247.58889,236.92327 245,233.84655 V 196.92327 C 245,176.61547 244.82938,160 244.62084,160 c -0.20853,0 -2.93491,1.17006 -6.05861,2.60014 -3.12371,1.43008 -8.24059,2.82723 -11.37085,3.10478 -5.20986,0.46194 -5.90289,0.27744 -8.19138,-2.18071 -2.29553,-2.46571 -2.5,-3.44713 -2.5,-11.99979 0,-10.61059 1.12465,-12.80772 7.42418,-14.504 6.24008,-1.68028 12.85052,-6.62938 16.52303,-12.37045 1.89906,-2.9687 4.18713,-5.67941 5.0846,-6.0238 2.71434,-1.04159 28.45932,-0.70128 30.52358,0.40347 4.90428,2.62469 4.94461,3.12225 4.94461,60.99762 v 54.12659 l -2.92308,2.92307 C 275.15825,239.9956 275.13504,240 262.66582,240 H 250.17779 Z M 175.51131,219.4177 c -2.86274,-3.08894 -7.55767,-14.05788 -10.69427,-24.98539 -3.29703,-11.48645 -3.29379,-34.18506 0.007,-46.36548 4.43539,-16.36919 11.80659,-29.42884 23.67199,-41.93999 17.27309,-18.213136 38.44798,-27.748167 64.00436,-28.821095 9.59806,-0.402953 13.94198,-0.101585 21.70208,1.505624 16.5029,3.417949 31.9673,11.088182 43.40229,21.527221 7.05276,6.43849 8.16421,9.89283 4.39563,13.66141 -3.29057,3.29057 -6.11598,2.45743 -13.57199,-4.002 -3.86314,-3.34645 -10.9104,-8.00034 -15.9284,-10.518591 -12.59907,-6.322768 -22.25543,-8.597232 -36.5,-8.597232 -14.26018,0 -23.74086,2.24717 -36.97851,8.764883 -8.11607,3.99605 -10.84745,6.04575 -19.00238,14.2599 -9.82193,9.89326 -14.42963,16.5823 -18.69251,27.13615 -8.09143,20.03236 -7.25916,45.24772 2.16684,65.64907 4.20226,9.09523 4.29745,10.54055 0.8717,13.23524 -3.50208,2.75474 -5.95955,2.61326 -8.85383,-0.50972 z"
       id="path831"
       inkscape:connector-curvature="0" />
    <path
       style="fill:#91b6d9"
       d="m 176.60674,481.41635 c -9.84129,-15.17399 -18.42019,-27.79127 -19.06421,-28.0384 -0.64403,-0.24714 -15.21216,3.84172 -32.37363,9.08635 C 108.00743,467.70894 93.523831,472 92.983116,472 c -0.540714,0 -0.981786,-0.5625 -0.980161,-1.25 0.0016,-0.6875 11.593285,-33.2 25.759235,-72.25 l 25.75627,-71 7.33524,-0.85553 c 4.49994,-0.52484 7.70118,-0.48959 8.28196,0.0912 0.59563,0.59563 -7.03882,22.96307 -20.58628,60.31372 -11.84315,32.65185 -21.17607,59.72393 -20.73981,60.16019 1.23167,1.23167 16.38416,-3.65388 17.99932,-5.80344 0.78773,-1.04837 9.38471,-23.92504 19.10439,-50.83704 9.71968,-26.91199 18.2304,-49.11698 18.91271,-49.34442 0.76553,-0.25518 3.21479,3.83464 6.39644,10.68091 3.33071,7.16699 5.70843,11.09679 6.71673,11.10112 0.85846,0.004 9.77343,-3.67767 19.81104,-8.18077 l 18.25021,-8.18747 9.24979,8.92998 c 5.08739,4.91149 10.10013,10.28527 11.13942,11.94174 l 1.88961,3.01176 -24.99209,68.98903 c -15.63819,43.1682 -25.51515,69.08361 -26.38961,69.24174 -0.85493,0.15459 -8.3447,-10.45893 -19.29079,-27.33636 z M 314.09823,506.75 C 304.75853,482.0931 265,370.79118 265,369.30209 c 0,-2.02078 10.55259,-12.08283 11.58702,-11.0484 0.26987,0.26986 9.8395,26.31007 21.26586,57.86712 13.38001,36.95261 21.28634,57.46513 22.21116,57.62555 1.77241,0.30744 10.19994,-12.29193 10.15028,-15.17494 C 330.1947,457.43214 321.59019,432.875 311.09318,404 c -10.49701,-28.875 -19.0872,-52.8375 -19.08932,-53.25 -0.008,-1.58427 3.06883,-0.5386 16.91989,5.75 7.87417,3.575 15.05008,6.49686 15.94647,6.49303 1.12482,-0.005 4.4084,-5.78054 10.59783,-18.64129 l 8.96804,-18.63432 11.45453,0.61387 c 6.29999,0.33762 11.79795,0.9637 12.21769,1.39129 0.86293,0.87904 50.93376,138.54438 51.65739,142.02742 0.26665,1.28348 -0.0188,2.25 -0.66447,2.25 -0.62257,0 -15.29994,-4.33017 -32.61638,-9.62261 -22.64762,-6.9218 -31.83535,-9.32996 -32.73465,-8.57994 -0.68761,0.57346 -9.1252,13.22406 -18.7502,28.11243 -9.625,14.88837 -18.07364,27.07435 -18.77475,27.07995 -0.70111,0.006 -1.65827,-1.00233 -2.12702,-2.23983 z M 250.46241,336.9189 c -2.72933,-2.79461 -8.46489,-8.25579 -12.74571,-12.13597 l -7.7833,-7.05486 -14.7167,6.63832 c -8.09418,3.65108 -15.48681,6.63726 -16.42806,6.63597 -1.22022,-0.002 -3.87318,-4.48991 -9.24416,-15.63908 l -7.53281,-15.63673 -4.29675,0.58894 c -9.25241,1.26818 -30.43257,1.95038 -31.02046,0.99915 -0.32937,-0.53294 -1.33872,-8.13425 -2.243,-16.89181 -0.90427,-8.75756 -2.03828,-16.40387 -2.52001,-16.99181 -0.48174,-0.58795 -7.91273,-3.04223 -16.51332,-5.45398 -8.60059,-2.41174 -15.866,-4.98061 -16.14536,-5.70859 -0.27935,-0.72798 1.31438,-8.6037 3.54163,-17.5016 2.22724,-8.89789 3.86086,-16.48327 3.63026,-16.85639 -0.2306,-0.37313 -6.49999,-5.0455 -13.93197,-10.38307 C 95.080711,206.18983 89,201.36003 89,200.79451 c 0,-0.56553 3.973005,-6.93814 8.8289,-14.16137 4.8559,-7.22323 9.14289,-13.67208 9.52666,-14.33078 0.40263,-0.69109 -3.36455,-7.17343 -8.906691,-15.32609 -5.282447,-7.77065 -9.389713,-14.68804 -9.127258,-15.37199 0.262455,-0.68395 5.91467,-5.17406 12.560479,-9.97803 6.64581,-4.80396 12.71259,-9.36379 13.48175,-10.13295 1.19795,-1.19795 0.81032,-3.76805 -2.70353,-17.92504 -2.81416,-11.33804 -3.77864,-16.849935 -3.07204,-17.556526 0.56647,-0.566469 7.91112,-3.006119 16.32144,-5.421445 8.41033,-2.415326 15.6592,-4.773728 16.1086,-5.240895 0.44941,-0.467167 1.5732,-8.274394 2.49733,-17.349394 0.97927,-9.616603 2.16084,-16.79829 2.83229,-17.215022 0.63364,-0.393263 4.52707,-0.42461 8.65207,-0.06966 4.125,0.354949 11.775,0.676709 17,0.715022 l 9.5,0.06966 7,-14.235295 c 3.85,-7.829412 7.48874,-14.708148 8.08608,-15.286079 0.765,-0.740142 5.39039,0.881472 15.6459,5.485295 C 221.23988,21.058764 228.56076,24 229.5006,24 c 0.93985,0 7.11038,-5.175 13.71229,-11.5 C 249.81481,6.175 255.5743,1 256.01176,1 c 0.43746,0 6.42852,5.4126662 13.31346,12.028147 l 12.51807,12.028147 15.70423,-7.046124 c 10.88228,-4.882626 16.06962,-6.742875 16.89425,-6.058499 0.65451,0.543194 4.29501,7.586695 8.09002,15.652224 l 6.9,14.664599 13.5341,-0.682417 C 350.40965,41.210749 358.075,40.684642 360,40.416951 c 1.925,-0.26769 4.01843,-0.133514 4.65207,0.29817 0.66268,0.451472 1.86581,7.793877 2.83229,17.284879 0.92413,9.075 2.04792,16.882227 2.49733,17.349394 0.4494,0.467167 7.69827,2.825569 16.1086,5.240895 8.41032,2.415326 15.7681,4.868964 16.35061,5.452529 0.74565,0.747012 -0.1767,5.846522 -3.11655,17.230752 -2.29661,8.89335 -3.87161,16.71076 -3.5,17.37203 0.37161,0.66127 6.45494,5.35862 13.51851,10.43856 7.06357,5.07994 13.06108,9.80492 13.32779,10.49995 0.26671,0.69504 -3.83707,7.62151 -9.11952,15.39216 -5.59904,8.23635 -9.30877,14.6279 -8.89546,15.32609 0.38994,0.6587 4.67694,7.14826 9.52666,14.42123 4.84972,7.27297 8.81767,13.64559 8.81767,14.16137 0,0.51577 -6.08071,5.30487 -13.51269,10.64243 -7.43198,5.33757 -13.70137,10.00994 -13.93197,10.38307 -0.2306,0.37312 1.40302,7.9585 3.63026,16.85639 2.22725,8.8979 3.82098,16.77362 3.54163,17.5016 -0.27936,0.72798 -7.54477,3.29685 -16.14536,5.70859 -8.60059,2.41175 -16.03158,4.86603 -16.51332,5.45398 -0.48173,0.58794 -1.61574,8.23425 -2.52001,16.99181 -0.90428,8.75756 -1.91363,16.35887 -2.243,16.89181 -0.58789,0.95123 -21.76805,0.26903 -31.02046,-0.99915 l -4.29675,-0.58894 -7.53281,15.63673 c -5.37098,11.14917 -8.02394,15.6374 -9.24416,15.63908 -0.94125,10e-4 -8.33271,-2.98437 -16.42548,-6.6348 l -14.71411,-6.63716 -6.78589,6.05697 c -3.73223,3.33133 -9.47179,8.79199 -12.75458,12.1348 -3.28278,3.3428 -6.2247,6.07783 -6.53759,6.07783 -0.31289,0 -2.80198,-2.2865 -5.5313,-5.0811 z m 26.40999,-58.54869 c 54.11796,-9.5702 93.15618,-62.30574 87.18408,-117.77429 -4.16763,-38.70874 -27.2032,-71.580662 -61.7571,-88.127827 -16.90772,-8.096764 -38.22445,-11.669964 -57.28615,-9.602543 -25.63787,2.780669 -45.66841,12.120572 -64.18427,29.928048 -53.03088,51.002012 -41.25275,139.266872 23.30239,174.627162 21.74448,11.91061 46.35626,15.61533 72.74105,10.94945 z M 248.07258,236.36514 C 246.0598,233.8063 246,232.65225 246,196.36514 246,175.54569 245.6107,159 245.12084,159 c -0.48353,0 -3.43491,1.17006 -6.55861,2.60014 -3.12371,1.43008 -8.24059,2.8308 -11.37085,3.11272 -7.94059,0.71513 -9.56465,-1.15897 -10.02181,-11.56477 -0.39814,-9.06235 0.79545,-12.7894 4.56035,-14.23989 10.8985,-4.19885 14.60963,-7.02977 22.09614,-16.85538 L 246.15212,119 l 14.17394,0.0318 c 14.77521,0.0332 16.24742,0.40318 18.5106,4.65246 0.84321,1.58319 1.16334,17.0746 1.16334,56.29545 v 54.1112 l -2.45455,2.45454 C 275.20178,238.88913 274.52751,239 262.61803,239 c -12.28357,0 -12.50433,-0.04 -14.54545,-2.63486 z m -72.5363,-18.72868 c -3.07188,-4.02745 -6.70669,-12.7239 -9.75883,-23.34848 -3.01886,-10.50872 -3.20417,-34.08194 -0.35208,-44.78798 7.424,-27.86788 24.5319,-49.29679 49.07463,-61.469622 13.81021,-6.849657 22.32436,-9.052402 37.5,-9.701834 20.29881,-0.868675 37.97157,3.896028 54.29042,14.637087 C 317.33443,100.23479 323,105.64769 323,108.93 c 0,3.0163 -2.6849,6.07 -5.33691,6.07 -0.92369,0 -4.93826,-2.73625 -8.92126,-6.08055 -8.61808,-7.23611 -22.19246,-14.165503 -33.24183,-16.969154 -11.04187,-2.80175 -28.02195,-2.793019 -39,0.02005 C 205.30783,99.963191 181.96171,124.66075 175.97402,156 c -2.97108,15.55048 -0.36901,35.78307 6.51942,50.69218 4.07855,8.82747 4.17761,9.63677 1.50656,12.30782 -2.89375,2.89375 -5.54193,2.46712 -8.46372,-1.36354 z"
       id="path829"
       inkscape:connector-curvature="0" />
    <path
       style="fill:#9ba0a7"
       d="m 177.13446,480.97647 c -9.55104,-14.80784 -17.92597,-27.38848 -18.61095,-27.95696 -0.88993,-0.73857 -10.16674,1.68007 -32.50035,8.47345 C 108.83295,466.72183 94.32159,471 93.775704,471 93.229818,471 93.042968,469.96494 93.360482,468.69986 94.371158,464.67301 143.71228,328.95438 144.42453,328.24214 145.46026,327.20641 159,326.64781 159,327.64081 c 0,0.47658 -9.45,26.92041 -21,58.76408 -11.55,31.84366 -21,58.72952 -21,59.74634 0,1.20998 0.72378,1.84877 2.09476,1.84877 3.65951,0 15.66451,-4.07268 17.15378,-5.8194 0.7881,-0.92433 9.43514,-23.8431 19.21565,-50.9306 9.78051,-27.0875 18.08101,-49.25 18.44556,-49.25 0.36454,0 3.10516,4.95 6.09025,11 3.06123,6.20431 6.03991,11 6.83227,11 0.77266,0 9.46868,-3.63177 19.32449,-8.0706 9.8558,-4.43883 18.32028,-7.92633 18.80995,-7.75 2.51563,0.90588 21.03329,20.09752 21.03329,21.79883 0,1.06734 -11.025,32.375 -24.5,69.57259 -13.475,37.19758 -24.5,67.81584 -24.5,68.04057 0,0.22474 -0.5625,0.38607 -1.25,0.35853 -0.6875,-0.0276 -9.06449,-12.1656 -18.61554,-26.97345 z M 315,507.6229 c 0,-0.35288 -47.99004,-132.98301 -49.55144,-136.94538 -0.54575,-1.38494 0.55258,-3.01552 4.57483,-6.79181 2.91115,-2.73313 5.65781,-4.60451 6.10369,-4.15863 0.44588,0.44588 9.83483,25.71322 20.86434,56.14965 11.02951,30.43644 20.50934,56.19044 21.0663,57.23112 C 318.61468,474.14853 319.69757,475 320.46414,475 322.08429,475 331,461.14982 331,458.633 c 0,-0.93452 -8.56764,-25.36661 -19.0392,-54.29354 -10.47156,-28.92692 -18.79545,-52.83814 -18.49755,-53.13605 0.29791,-0.29791 7.25167,2.45946 15.45279,6.12747 8.20113,3.66802 15.55449,6.66912 16.34079,6.66912 0.86732,0 5.05395,-7.49849 10.64385,-19.06371 l 9.21419,-19.06372 8.19257,0.60844 c 12.14991,0.90234 14.43032,1.39761 15.17709,3.29619 C 371.63375,337.78377 419,469.30129 419,470.03888 419,470.5675 418.60215,471 418.11589,471 c -0.48626,0 -14.99876,-4.2961 -32.25,-9.54689 L 354.5,451.90622 l -2,2.33085 c -1.1,1.28197 -9.425,13.88205 -18.5,28.00018 -9.075,14.11812 -17.0625,25.69034 -17.75,25.71603 -0.6875,0.0257 -1.25,-0.12297 -1.25,-0.33038 z m -64.53759,-170.704 c -2.72933,-2.79461 -8.46489,-8.25579 -12.74571,-12.13597 l -7.7833,-7.05486 -14.7167,6.63832 c -8.09418,3.65108 -15.48681,6.63726 -16.42806,6.63597 -1.22022,-0.002 -3.87318,-4.48991 -9.24416,-15.63908 l -7.53281,-15.63673 -4.29675,0.58894 c -9.25241,1.26818 -30.43257,1.95038 -31.02046,0.99915 -0.32937,-0.53294 -1.33872,-8.13425 -2.243,-16.89181 -0.90427,-8.75756 -2.03828,-16.40387 -2.52001,-16.99181 -0.48174,-0.58795 -7.91273,-3.04223 -16.51332,-5.45398 -8.60059,-2.41174 -15.866,-4.98061 -16.14536,-5.70859 -0.27935,-0.72798 1.31438,-8.6037 3.54163,-17.5016 2.22724,-8.89789 3.86086,-16.48327 3.63026,-16.85639 -0.2306,-0.37313 -6.49999,-5.0455 -13.93197,-10.38307 C 95.080711,206.18983 89,201.36003 89,200.79451 c 0,-0.56553 3.973005,-6.93814 8.8289,-14.16137 4.8559,-7.22323 9.14289,-13.67208 9.52666,-14.33078 0.40263,-0.69109 -3.36455,-7.17343 -8.906691,-15.32609 -5.282447,-7.77065 -9.389713,-14.68804 -9.127258,-15.37199 0.262455,-0.68395 5.91467,-5.17406 12.560479,-9.97803 6.64581,-4.80396 12.71259,-9.36379 13.48175,-10.13295 1.19795,-1.19795 0.81032,-3.76805 -2.70353,-17.92504 -2.81416,-11.33804 -3.77864,-16.849935 -3.07204,-17.556526 0.56647,-0.566469 7.91112,-3.006119 16.32144,-5.421445 8.41033,-2.415326 15.6592,-4.773728 16.1086,-5.240895 0.44941,-0.467167 1.5732,-8.274394 2.49733,-17.349394 0.97927,-9.616603 2.16084,-16.79829 2.83229,-17.215022 0.63364,-0.393263 4.52707,-0.42461 8.65207,-0.06966 4.125,0.354949 11.775,0.676709 17,0.715022 l 9.5,0.06966 7,-14.235295 c 3.85,-7.829412 7.48874,-14.708148 8.08608,-15.286079 0.765,-0.740142 5.39039,0.881472 15.6459,5.485295 C 221.23988,21.058764 228.56076,24 229.5006,24 c 0.93985,0 7.11038,-5.175 13.71229,-11.5 C 249.81481,6.175 255.5743,1 256.01176,1 c 0.43746,0 6.42852,5.4126662 13.31346,12.028147 l 12.51807,12.028147 15.70423,-7.046124 c 10.88228,-4.882626 16.06962,-6.742875 16.89425,-6.058499 0.65451,0.543194 4.29501,7.586695 8.09002,15.652224 l 6.9,14.664599 13.5341,-0.682417 C 350.40965,41.210749 358.075,40.684642 360,40.416951 c 1.925,-0.26769 4.01843,-0.133514 4.65207,0.29817 0.66268,0.451472 1.86581,7.793877 2.83229,17.284879 0.92413,9.075 2.04792,16.882227 2.49733,17.349394 0.4494,0.467167 7.69827,2.825569 16.1086,5.240895 8.41032,2.415326 15.7681,4.868964 16.35061,5.452529 0.74565,0.747012 -0.1767,5.846522 -3.11655,17.230752 -2.29661,8.89335 -3.87161,16.71076 -3.5,17.37203 0.37161,0.66127 6.45494,5.35862 13.51851,10.43856 7.06357,5.07994 13.06108,9.80492 13.32779,10.49995 0.26671,0.69504 -3.83707,7.62151 -9.11952,15.39216 -5.59904,8.23635 -9.30877,14.6279 -8.89546,15.32609 0.38994,0.6587 4.67694,7.14826 9.52666,14.42123 4.84972,7.27297 8.81767,13.64559 8.81767,14.16137 0,0.51577 -6.08071,5.30487 -13.51269,10.64243 -7.43198,5.33757 -13.70137,10.00994 -13.93197,10.38307 -0.2306,0.37312 1.40302,7.9585 3.63026,16.85639 2.22725,8.8979 3.82098,16.77362 3.54163,17.5016 -0.27936,0.72798 -7.54477,3.29685 -16.14536,5.70859 -8.60059,2.41175 -16.03158,4.86603 -16.51332,5.45398 -0.48173,0.58794 -1.61574,8.23425 -2.52001,16.99181 -0.90428,8.75756 -1.91363,16.35887 -2.243,16.89181 -0.58789,0.95123 -21.76805,0.26903 -31.02046,-0.99915 l -4.29675,-0.58894 -7.53281,15.63673 c -5.37098,11.14917 -8.02394,15.6374 -9.24416,15.63908 -0.94125,10e-4 -8.33271,-2.98437 -16.42548,-6.6348 l -14.71411,-6.63716 -6.78589,6.05697 c -3.73223,3.33133 -9.47179,8.79199 -12.75458,12.1348 -3.28278,3.3428 -6.2247,6.07783 -6.53759,6.07783 -0.31289,0 -2.80198,-2.2865 -5.5313,-5.0811 z m 26.40999,-58.54869 c 54.11796,-9.5702 93.15618,-62.30574 87.18408,-117.77429 -4.16763,-38.70874 -27.2032,-71.580662 -61.7571,-88.127827 -16.90772,-8.096764 -38.22445,-11.669964 -57.28615,-9.602543 -25.63787,2.780669 -45.66841,12.120572 -64.18427,29.928048 -53.03088,51.002012 -41.25275,139.266872 23.30239,174.627162 21.74448,11.91061 46.35626,15.61533 72.74105,10.94945 z m -25.55703,-40.37719 c -1.20154,-0.48411 -2.66404,-1.77601 -3.25,-2.87087 C 247.3666,233.81647 247,220.3974 247,196.12476 c 0,-25.26429 -0.34037,-37.21709 -1.07269,-37.66969 -0.58998,-0.36462 -3.85248,0.59336 -7.25,2.12886 -3.50692,1.58494 -8.60501,2.97451 -11.79321,3.21443 -5.00132,0.37637 -5.79474,0.1673 -7.25,-1.91037 -2.03362,-2.9034 -2.3141,-17.61388 -0.3841,-20.14517 0.6875,-0.9017 3.89477,-2.61646 7.12726,-3.8106 5.87256,-2.16941 12.05059,-7.35652 17.62274,-14.79616 2.42266,-3.2346 2.76645,-3.35431 11.11263,-3.86935 11.71278,-0.72279 19.43712,0.33363 21.91915,2.99778 1.90759,2.04756 1.96822,3.78757 1.96822,56.48981 0,34.76071 -0.36499,55.05918 -1.01177,56.26769 -0.55647,1.03977 -2.69397,2.35768 -4.75,2.92868 -4.49182,1.24746 -18.86293,1.27523 -21.92286,0.0423 z m -74.63045,-19.78868 c -2.45883,-2.71698 -7.42328,-14.22757 -9.66781,-22.41584 -5.25943,-19.18689 -4.06175,-40.49605 3.30053,-58.72321 C 187.93563,93.447527 233.89378,70.095732 279.5,81.588633 c 14.30935,3.605998 39.49773,18.922747 42.70907,25.970877 0.90489,1.98603 0.77546,2.80011 -0.70539,4.43643 -2.70635,2.99047 -5.13297,2.46802 -10.84419,-2.33474 C 298.56855,99.493497 287.783,93.971451 274.10693,90.946815 220.30191,79.047156 171.17448,121.04734 174.29285,176.28021 c 0.6424,11.37813 3.29977,21.99537 7.7503,30.96547 3.17378,6.3968 3.66748,9.64369 1.75685,11.55432 -1.75697,1.75697 -5.25067,1.46448 -7.11508,-0.59566 z"
       id="path827"
       inkscape:connector-curvature="0" />
    <path
       style="fill:#5792c9"
       d="m 177.13446,480.97647 c -9.55104,-14.80784 -17.92597,-27.38848 -18.61095,-27.95696 -0.88993,-0.73857 -10.16674,1.68007 -32.50035,8.47345 C 108.83295,466.72183 94.32159,471 93.775704,471 93.229818,471 93.042968,469.96494 93.360482,468.69986 94.371158,464.67301 143.71228,328.95438 144.42453,328.24214 145.46026,327.20641 159,326.64781 159,327.64081 c 0,0.47658 -9.45,26.92041 -21,58.76408 -11.55,31.84366 -21,58.72952 -21,59.74634 0,1.20998 0.72378,1.84877 2.09476,1.84877 3.65951,0 15.66451,-4.07268 17.15378,-5.8194 0.7881,-0.92433 9.43514,-23.8431 19.21565,-50.9306 9.78051,-27.0875 18.08101,-49.25 18.44556,-49.25 0.36454,0 3.10516,4.95 6.09025,11 3.06123,6.20431 6.03991,11 6.83227,11 0.77266,0 9.46868,-3.63177 19.32449,-8.0706 9.8558,-4.43883 18.32028,-7.92633 18.80995,-7.75 2.51563,0.90588 21.03329,20.09752 21.03329,21.79883 0,1.06734 -11.025,32.375 -24.5,69.57259 -13.475,37.19758 -24.5,67.81584 -24.5,68.04057 0,0.22474 -0.5625,0.38607 -1.25,0.35853 -0.6875,-0.0276 -9.06449,-12.1656 -18.61554,-26.97345 z M 315,507.6229 c 0,-0.35288 -47.99004,-132.98301 -49.55144,-136.94538 -0.54575,-1.38494 0.55258,-3.01552 4.57483,-6.79181 2.91115,-2.73313 5.65781,-4.60451 6.10369,-4.15863 0.44588,0.44588 9.83483,25.71322 20.86434,56.14965 11.02951,30.43644 20.50934,56.19044 21.0663,57.23112 C 318.61468,474.14853 319.69757,475 320.46414,475 322.08429,475 331,461.14982 331,458.633 c 0,-0.93452 -8.56764,-25.36661 -19.0392,-54.29354 -10.47156,-28.92692 -18.79545,-52.83814 -18.49755,-53.13605 0.29791,-0.29791 7.25167,2.45946 15.45279,6.12747 8.20113,3.66802 15.55449,6.66912 16.34079,6.66912 0.86732,0 5.05395,-7.49849 10.64385,-19.06371 l 9.21419,-19.06372 8.19257,0.60844 c 12.14991,0.90234 14.43032,1.39761 15.17709,3.29619 C 371.63375,337.78377 419,469.30129 419,470.03888 419,470.5675 418.60215,471 418.11589,471 c -0.48626,0 -14.99876,-4.2961 -32.25,-9.54689 L 354.5,451.90622 l -2,2.33085 c -1.1,1.28197 -9.425,13.88205 -18.5,28.00018 -9.075,14.11812 -17.0625,25.69034 -17.75,25.71603 -0.6875,0.0257 -1.25,-0.12297 -1.25,-0.33038 z M 243,328.5 c -6.30706,-6.325 -11.99962,-11.5 -12.65014,-11.5 -0.65052,0 -7.82794,2.9831 -15.94984,6.62912 -9.71628,4.36176 -15.20785,6.32843 -16.05577,5.75 -0.70879,-0.48352 -4.41687,-7.24385 -8.24019,-15.02296 -3.82332,-7.77911 -7.37753,-14.40714 -7.89823,-14.72895 -0.52071,-0.32182 -8.42531,-0.0649 -17.56577,0.57102 -9.14047,0.63587 -16.80669,0.9639 -17.03606,0.72895 -0.22937,-0.23495 -1.16898,-7.85218 -2.08802,-16.92718 -0.91904,-9.075 -2.1986,-17.01951 -2.84348,-17.65447 -0.64487,-0.63495 -7.9225,-3.02301 -16.1725,-5.30679 -8.25,-2.28377 -15.35965,-4.50891 -15.79922,-4.94475 -0.43957,-0.43584 1.02041,-8.03003 3.24441,-16.87599 2.224,-8.84595 3.80329,-16.6763 3.50954,-17.40078 -0.29375,-0.72447 -6.14472,-5.32532 -13.00216,-10.2241 -6.857442,-4.89878 -12.947971,-9.48511 -13.534509,-10.19185 -0.800893,-0.96502 1.34081,-4.79418 8.601265,-15.37824 5.317234,-7.7513 9.445984,-14.63996 9.175004,-15.30815 -0.27098,-0.66818 -4.55646,-7.22293 -9.523285,-14.56609 -4.966828,-7.34317 -8.812415,-13.86817 -8.545749,-14.5 0.266666,-0.63184 5.194255,-4.49869 10.950194,-8.59301 5.75595,-4.09433 11.84059,-8.59433 13.52143,-10 L 118.15299,120.5 114.0765,104.295 C 111.83442,95.382247 110,87.668039 110,87.152313 c 0,-0.515725 7.03798,-2.894916 15.63995,-5.28709 8.60198,-2.392175 16.20733,-4.802967 16.9008,-5.357316 0.78462,-0.627221 1.88321,-7.239411 2.90862,-17.506487 0.90629,-9.074219 1.96343,-16.792363 2.34921,-17.151431 0.38578,-0.359067 7.90142,-0.09685 16.70142,0.582702 8.8,0.679554 16.6304,1.010999 17.40088,0.736544 0.77048,-0.274454 4.53229,-7.062309 8.35958,-15.084122 3.82728,-8.021812 7.41664,-14.872057 7.97635,-15.222766 0.55972,-0.350709 7.34882,2.236791 15.08689,5.75 C 221.06178,22.125556 228.53527,25 229.93145,25 c 1.90517,0 5.46934,-2.923198 14.2856,-11.716489 l 11.7471,-11.7164898 12.44778,12.3061398 c 9.63467,9.52504 12.87954,12.169104 14.35829,11.69977 1.05077,-0.333504 8.22508,-3.47329 15.9429,-6.977304 7.71783,-3.504013 14.47888,-6.083989 15.02456,-5.73328 0.54568,0.350709 4.13476,7.200847 7.97573,15.222528 3.84098,8.021681 7.61426,14.809536 8.38509,15.084122 0.77082,0.274585 8.6015,-0.05675 17.4015,-0.736306 8.8,-0.679553 16.30483,-0.942408 16.6774,-0.584121 0.37258,0.358286 1.46073,8.213586 2.41813,17.456222 1.3551,13.082105 2.09114,16.985488 3.32259,17.620481 0.87003,0.448628 8.44438,2.727162 16.83188,5.063407 8.3875,2.336245 15.25,4.664777 15.25,5.174517 0,0.509739 -1.81915,8.162459 -4.04255,17.006043 -3.59944,14.31677 -3.87948,16.25745 -2.55489,17.705 0.81822,0.89417 6.89026,5.45076 13.49343,10.12576 6.60317,4.675 12.22458,9.02561 12.49204,9.66802 0.26746,0.64241 -3.59248,7.16741 -8.57763,14.5 -4.98515,7.33259 -9.27414,13.87918 -9.5311,14.54799 -0.25695,0.6688 3.87511,7.56754 9.18236,15.33053 7.14725,10.45436 9.37783,14.44194 8.6017,15.37711 -0.57632,0.69443 -6.65849,5.27069 -13.51593,10.16947 -6.85744,4.89878 -12.70841,9.49963 -13.00216,10.2241 -0.29375,0.72448 1.28554,8.55483 3.50954,17.40078 2.224,8.84596 3.68398,16.44015 3.24441,16.87599 -0.43957,0.43584 -7.54922,2.66098 -15.79922,4.94475 -8.25,2.28378 -15.52763,4.67184 -16.1725,5.30679 -0.64488,0.63496 -1.92444,8.57947 -2.84348,17.65447 -0.91904,9.075 -1.85865,16.69223 -2.08802,16.92718 -0.22937,0.23495 -7.89559,-0.0931 -17.03606,-0.72895 -9.14046,-0.63588 -17.04506,-0.89284 -17.56577,-0.57102 -0.5207,0.32181 -4.07491,6.94984 -7.89823,14.72895 -3.82332,7.77911 -7.5314,14.53944 -8.24019,15.02296 -0.84792,0.57843 -6.33949,-1.38824 -16.05577,-5.75 C 289.47808,319.9831 282.30066,317 281.65014,317 c -0.65052,0 -6.34308,5.175 -12.65014,11.5 -6.30706,6.325 -12.15706,11.5 -13,11.5 -0.84294,0 -6.69294,-5.175 -13,-11.5 z m 23.91889,-47.53962 C 334.435,274.03192 379.09493,208.9832 361.98042,142.5 359.04001,131.07763 349.44232,112.12881 341.63629,102.33433 326.28006,83.066386 303.61883,69.000051 278.78557,63.321485 c -10.04776,-2.297599 -35.52338,-2.297599 -45.57114,0 C 190.28597,73.13784 157.26424,106.49473 148.39679,149 c -2.17238,10.41308 -2.4169,31.30332 -0.49161,42 9.25039,51.39404 52.22388,88.14962 106.23887,90.86698 1.45422,0.0732 7.2029,-0.33481 12.77484,-0.9066 z m -15.60352,-42.96736 c -1.20154,-0.48411 -2.66404,-1.77601 -3.25,-2.87087 C 247.3666,233.81647 247,220.3974 247,196.12476 c 0,-25.26429 -0.34037,-37.21709 -1.07269,-37.66969 -0.58998,-0.36462 -3.85248,0.59336 -7.25,2.12886 -3.50692,1.58494 -8.60501,2.97451 -11.79321,3.21443 -5.00132,0.37637 -5.79474,0.1673 -7.25,-1.91037 -2.03362,-2.9034 -2.3141,-17.61388 -0.3841,-20.14517 0.6875,-0.9017 3.89477,-2.61646 7.12726,-3.8106 5.87256,-2.16941 12.05059,-7.35652 17.62274,-14.79616 2.42266,-3.2346 2.76645,-3.35431 11.11263,-3.86935 11.71278,-0.72279 19.43712,0.33363 21.91915,2.99778 1.90759,2.04756 1.96822,3.78757 1.96822,56.48981 0,34.76071 -0.36499,55.05918 -1.01177,56.26769 -0.55647,1.03977 -2.69397,2.35768 -4.75,2.92868 -4.49182,1.24746 -18.86293,1.27523 -21.92286,0.0423 z m -74.63045,-19.78868 c -2.45883,-2.71698 -7.42328,-14.22757 -9.66781,-22.41584 -5.25943,-19.18689 -4.06175,-40.49605 3.30053,-58.72321 C 187.93563,93.447527 233.89378,70.095732 279.5,81.588633 c 14.30935,3.605998 39.49773,18.922747 42.70907,25.970877 0.90489,1.98603 0.77546,2.80011 -0.70539,4.43643 -2.70635,2.99047 -5.13297,2.46802 -10.84419,-2.33474 C 298.56855,99.493497 287.783,93.971451 274.10693,90.946815 220.30191,79.047156 171.17448,121.04734 174.29285,176.28021 c 0.6424,11.37813 3.29977,21.99537 7.7503,30.96547 3.17378,6.3968 3.66748,9.64369 1.75685,11.55432 -1.75697,1.75697 -5.25067,1.46448 -7.11508,-0.59566 z"
       id="path825"
       inkscape:connector-curvature="0" />
    <path
       style="fill:#fdfeff;stroke:#ff6600;stroke-opacity:1;stroke-width:2.6727243;stroke-miterlimit:4;stroke-dasharray:none;fill-opacity:1"
       d="m 177.43974,479.42081 c -9.83676,-15.20995 -18.40696,-27.85474 -19.0449,-28.09954 -0.63793,-0.24479 -15.23318,3.86234 -32.43388,9.12697 -17.2007,5.26463 -31.443855,9.4022 -31.651448,9.19461 -0.52254,-0.52254 49.615748,-138.92001 50.747088,-140.07796 0.86325,-0.88355 12.94581,-2.22341 12.94127,-1.43508 -0.001,0.2036 -9.45117,26.42232 -21,58.26381 C 125.44904,418.23511 116,445.34761 116,446.64362 c 0,1.88062 0.53346,2.35638 2.64219,2.35638 3.03673,0 16.31905,-3.77108 17.95091,-5.09658 0.60121,-0.48834 9.15121,-23.16509 19,-50.39278 9.8488,-27.22769 18.16641,-49.50619 18.4836,-49.50777 0.31718,-0.002 2.79218,4.60963 5.5,10.24713 3.20004,6.66229 5.55647,10.36714 6.73226,10.58468 0.99492,0.18407 9.85343,-3.30343 19.68557,-7.75 C 215.82667,352.63811 224.2659,349 224.74839,349 226.31064,349 245,368.66858 245,370.31269 c 0,1.76295 -47.90531,134.71778 -48.99349,135.97494 -0.37497,0.43319 -8.73002,-11.65688 -18.56677,-26.86682 z M 315.11174,504.75 C 304.04056,475.05098 267,371.43511 267,370.16401 c 0,-2.35194 7.72812,-9.86124 8.86656,-8.6155 0.47824,0.52332 9.97299,26.15149 21.09944,56.95149 11.12645,30.8 20.66873,56.53575 21.20507,57.19056 0.53634,0.65481 1.64259,0.93444 2.45834,0.62141 C 322.81462,475.47342 332,461.44416 332,458.94513 c 0,-1.17986 -8.33853,-25.15125 -18.53007,-53.26975 -10.19154,-28.1185 -18.40404,-51.64575 -18.25,-52.28276 0.17089,-0.7067 5.73768,1.34311 14.28007,5.25824 7.7,3.52904 14.89237,6.2888 15.98304,6.13279 1.4735,-0.21077 3.84588,-4.13787 9.23292,-15.28365 3.98744,-8.25 8.05071,-16.575 9.0295,-18.5 l 1.7796,-3.5 8.98747,0.37416 c 4.94311,0.20578 9.89365,0.71672 11.0012,1.13541 1.602,0.60562 7.17949,15.02258 27.2794,70.51311 13.89612,38.36352 25.10024,69.91728 24.89804,70.11948 -0.20219,0.2022 -14.45817,-3.93172 -31.67995,-9.18648 -17.22177,-5.25477 -31.8248,-9.35746 -32.45116,-9.1171 -0.62637,0.24036 -9.17481,12.86251 -18.99654,28.04922 C 324.74179,494.57451 316.53588,507 316.32816,507 c -0.20771,0 -0.7551,-1.0125 -1.21642,-2.25 z M 243,328.5 c -6.30706,-6.325 -11.99962,-11.5 -12.65014,-11.5 -0.65052,0 -7.82794,2.9831 -15.94984,6.62912 -9.71628,4.36176 -15.20785,6.32843 -16.05577,5.75 -0.70879,-0.48352 -4.41687,-7.24385 -8.24019,-15.02296 -3.82332,-7.77911 -7.37753,-14.40714 -7.89823,-14.72895 -0.52071,-0.32182 -8.42531,-0.0649 -17.56577,0.57102 -9.14047,0.63587 -16.80669,0.9639 -17.03606,0.72895 -0.22937,-0.23495 -1.16898,-7.85218 -2.08802,-16.92718 -0.91904,-9.075 -2.1986,-17.01951 -2.84348,-17.65447 -0.64487,-0.63495 -7.9225,-3.02301 -16.1725,-5.30679 -8.25,-2.28377 -15.35965,-4.50891 -15.79922,-4.94475 -0.43957,-0.43584 1.02041,-8.03003 3.24441,-16.87599 2.224,-8.84595 3.80329,-16.6763 3.50954,-17.40078 -0.29375,-0.72447 -6.14472,-5.32532 -13.00216,-10.2241 -6.857442,-4.89878 -12.947971,-9.48511 -13.534509,-10.19185 -0.800893,-0.96502 1.34081,-4.79418 8.601265,-15.37824 5.317234,-7.7513 9.445984,-14.63996 9.175004,-15.30815 -0.27098,-0.66818 -4.55646,-7.22293 -9.523285,-14.56609 -4.966828,-7.34317 -8.812415,-13.86817 -8.545749,-14.5 0.266666,-0.63184 5.194255,-4.49869 10.950194,-8.59301 5.75595,-4.09433 11.84059,-8.59433 13.52143,-10 L 118.15299,120.5 114.0765,104.295 C 111.83442,95.382247 110,87.668039 110,87.152313 c 0,-0.515725 7.03798,-2.894916 15.63995,-5.28709 8.60198,-2.392175 16.20733,-4.802967 16.9008,-5.357316 0.78462,-0.627221 1.88321,-7.239411 2.90862,-17.506487 0.90629,-9.074219 1.96343,-16.792363 2.34921,-17.151431 0.38578,-0.359067 7.90142,-0.09685 16.70142,0.582702 8.8,0.679554 16.6304,1.010999 17.40088,0.736544 0.77048,-0.274454 4.53229,-7.062309 8.35958,-15.084122 3.82728,-8.021812 7.41664,-14.872057 7.97635,-15.222766 0.55972,-0.350709 7.34882,2.236791 15.08689,5.75 C 221.06178,22.125556 228.53527,25 229.93145,25 c 1.90517,0 5.46934,-2.923198 14.2856,-11.716489 l 11.7471,-11.7164898 12.44778,12.3061398 c 9.63467,9.52504 12.87954,12.169104 14.35829,11.69977 1.05077,-0.333504 8.22508,-3.47329 15.9429,-6.977304 7.71783,-3.504013 14.47888,-6.083989 15.02456,-5.73328 0.54568,0.350709 4.13476,7.200847 7.97573,15.222528 3.84098,8.021681 7.61426,14.809536 8.38509,15.084122 0.77082,0.274585 8.6015,-0.05675 17.4015,-0.736306 8.8,-0.679553 16.30483,-0.942408 16.6774,-0.584121 0.37258,0.358286 1.46073,8.213586 2.41813,17.456222 1.3551,13.082105 2.09114,16.985488 3.32259,17.620481 0.87003,0.448628 8.44438,2.727162 16.83188,5.063407 8.3875,2.336245 15.25,4.664777 15.25,5.174517 0,0.509739 -1.81915,8.162459 -4.04255,17.006043 -3.59944,14.31677 -3.87948,16.25745 -2.55489,17.705 0.81822,0.89417 6.89026,5.45076 13.49343,10.12576 6.60317,4.675 12.22458,9.02561 12.49204,9.66802 0.26746,0.64241 -3.59248,7.16741 -8.57763,14.5 -4.98515,7.33259 -9.27414,13.87918 -9.5311,14.54799 -0.25695,0.6688 3.87511,7.56754 9.18236,15.33053 7.14725,10.45436 9.37783,14.44194 8.6017,15.37711 -0.57632,0.69443 -6.65849,5.27069 -13.51593,10.16947 -6.85744,4.89878 -12.70841,9.49963 -13.00216,10.2241 -0.29375,0.72448 1.28554,8.55483 3.50954,17.40078 2.224,8.84596 3.68398,16.44015 3.24441,16.87599 -0.43957,0.43584 -7.54922,2.66098 -15.79922,4.94475 -8.25,2.28378 -15.52763,4.67184 -16.1725,5.30679 -0.64488,0.63496 -1.92444,8.57947 -2.84348,17.65447 -0.91904,9.075 -1.85865,16.69223 -2.08802,16.92718 -0.22937,0.23495 -7.89559,-0.0931 -17.03606,-0.72895 -9.14046,-0.63588 -17.04506,-0.89284 -17.56577,-0.57102 -0.5207,0.32181 -4.07491,6.94984 -7.89823,14.72895 -3.82332,7.77911 -7.5314,14.53944 -8.24019,15.02296 -0.84792,0.57843 -6.33949,-1.38824 -16.05577,-5.75 C 289.47808,319.9831 282.30066,317 281.65014,317 c -0.65052,0 -6.34308,5.175 -12.65014,11.5 -6.30706,6.325 -12.15706,11.5 -13,11.5 -0.84294,0 -6.69294,-5.175 -13,-11.5 z m 23.91889,-47.53962 C 334.435,274.03192 379.09493,208.9832 361.98042,142.5 359.04001,131.07763 349.44232,112.12881 341.63629,102.33433 326.28006,83.066386 303.61883,69.000051 278.78557,63.321485 c -10.04776,-2.297599 -35.52338,-2.297599 -45.57114,0 C 190.28597,73.13784 157.26424,106.49473 148.39679,149 c -2.17238,10.41308 -2.4169,31.30332 -0.49161,42 9.25039,51.39404 52.22388,88.14962 106.23887,90.86698 1.45422,0.0732 7.2029,-0.33481 12.77484,-0.9066 z M 252,237.36075 c -3.89845,-1.53552 -4,-2.5912 -4,-41.58326 0,-33.10238 -0.19226,-37.91404 -1.53552,-38.4295 -0.84454,-0.32408 -4.24061,0.62474 -7.54682,2.10847 -3.3062,1.48374 -8.53263,2.95793 -11.61428,3.27599 C 219.88359,163.49824 219,162.2991 219,151.46386 c 0,-9.27163 0.46756,-10.00702 8.16728,-12.84551 5.45729,-2.01182 12.99756,-8.33512 16.43777,-13.78477 L 246.02509,121 h 14.43075 c 13.77871,0 14.50109,0.10042 15.98746,2.22251 1.36238,1.94508 1.5567,8.97838 1.5567,56.34501 0,64.12533 1.57198,57.74807 -14.33036,58.13598 C 258.07634,237.83994 252.825,237.6857 252,237.36075 Z M 175.61109,214.75 c -8.90936,-15.30996 -12.98026,-40.17012 -9.616,-58.72294 5.58817,-30.81689 24.18365,-54.97016 52.38608,-68.043142 32.3669,-15.003388 69.14492,-9.632183 97.77172,14.278962 4.95931,4.14237 6.14506,6.45333 4.66666,9.09509 -1.44011,2.57333 -5.16872,1.93241 -8.38246,-1.44089 -1.6154,-1.6956 -6.13315,-5.22595 -10.03945,-7.84522 C 265.19174,77.124423 214.25153,86.260996 188.50222,122.5 c -9.94598,13.99776 -14.47491,27.55605 -15.19855,45.5 -0.59596,14.77809 0.76927,22.62266 6.22242,35.754 4.61041,11.10198 5.10921,13.22981 3.36082,14.33705 -2.80305,1.77515 -4.84389,0.838 -7.27582,-3.34105 z"
       id="path823"
       inkscape:connector-curvature="0" />
    <path
       style="fill:#525c66"
       d="m 243,328.5 c -6.30706,-6.325 -11.99962,-11.5 -12.65014,-11.5 -0.65052,0 -7.82794,2.9831 -15.94984,6.62912 -9.71628,4.36176 -15.20785,6.32843 -16.05577,5.75 -0.70879,-0.48352 -4.41687,-7.24385 -8.24019,-15.02296 -3.82332,-7.77911 -7.37753,-14.40714 -7.89823,-14.72895 -0.52071,-0.32182 -8.42531,-0.0649 -17.56577,0.57102 -9.14047,0.63587 -16.80669,0.9639 -17.03606,0.72895 -0.22937,-0.23495 -1.16898,-7.85218 -2.08802,-16.92718 -0.91904,-9.075 -2.1986,-17.01951 -2.84348,-17.65447 -0.64487,-0.63495 -7.9225,-3.02301 -16.1725,-5.30679 -8.25,-2.28377 -15.35965,-4.50891 -15.79922,-4.94475 -0.43957,-0.43584 1.02041,-8.03003 3.24441,-16.87599 2.224,-8.84595 3.80329,-16.6763 3.50954,-17.40078 -0.29375,-0.72447 -6.14472,-5.32532 -13.00216,-10.2241 -6.857442,-4.89878 -12.947971,-9.48511 -13.534509,-10.19185 -0.800893,-0.96502 1.34081,-4.79418 8.601265,-15.37824 5.317234,-7.7513 9.445984,-14.63996 9.175004,-15.30815 -0.27098,-0.66818 -4.55646,-7.22293 -9.523285,-14.56609 -4.966828,-7.34317 -8.812415,-13.86817 -8.545749,-14.5 0.266666,-0.63184 5.194255,-4.49869 10.950194,-8.59301 5.75595,-4.09433 11.84059,-8.59433 13.52143,-10 L 118.15299,120.5 114.0765,104.295 C 111.83442,95.382247 110,87.668039 110,87.152313 c 0,-0.515725 7.03798,-2.894916 15.63995,-5.28709 8.60198,-2.392175 16.20733,-4.802967 16.9008,-5.357316 0.78462,-0.627221 1.88321,-7.239411 2.90862,-17.506487 0.90629,-9.074219 1.96343,-16.792363 2.34921,-17.151431 0.38578,-0.359067 7.90142,-0.09685 16.70142,0.582702 8.8,0.679554 16.6304,1.010999 17.40088,0.736544 0.77048,-0.274454 4.53229,-7.062309 8.35958,-15.084122 3.82728,-8.021812 7.41664,-14.872057 7.97635,-15.222766 0.55972,-0.350709 7.34882,2.236791 15.08689,5.75 C 221.06178,22.125556 228.53527,25 229.93145,25 c 1.90517,0 5.46934,-2.923198 14.2856,-11.716489 l 11.7471,-11.7164898 12.44778,12.3061398 c 9.63467,9.52504 12.87954,12.169104 14.35829,11.69977 1.05077,-0.333504 8.22508,-3.47329 15.9429,-6.977304 7.71783,-3.504013 14.47888,-6.083989 15.02456,-5.73328 0.54568,0.350709 4.13476,7.200847 7.97573,15.222528 3.84098,8.021681 7.61426,14.809536 8.38509,15.084122 0.77082,0.274585 8.6015,-0.05675 17.4015,-0.736306 8.8,-0.679553 16.30483,-0.942408 16.6774,-0.584121 0.37258,0.358286 1.46073,8.213586 2.41813,17.456222 1.3551,13.082105 2.09114,16.985488 3.32259,17.620481 0.87003,0.448628 8.44438,2.727162 16.83188,5.063407 8.3875,2.336245 15.25,4.664777 15.25,5.174517 0,0.509739 -1.81915,8.162459 -4.04255,17.006043 -3.59944,14.31677 -3.87948,16.25745 -2.55489,17.705 0.81822,0.89417 6.89026,5.45076 13.49343,10.12576 6.60317,4.675 12.22458,9.02561 12.49204,9.66802 0.26746,0.64241 -3.59248,7.16741 -8.57763,14.5 -4.98515,7.33259 -9.27414,13.87918 -9.5311,14.54799 -0.25695,0.6688 3.87511,7.56754 9.18236,15.33053 7.14725,10.45436 9.37783,14.44194 8.6017,15.37711 -0.57632,0.69443 -6.65849,5.27069 -13.51593,10.16947 -6.85744,4.89878 -12.70841,9.49963 -13.00216,10.2241 -0.29375,0.72448 1.28554,8.55483 3.50954,17.40078 2.224,8.84596 3.68398,16.44015 3.24441,16.87599 -0.43957,0.43584 -7.54922,2.66098 -15.79922,4.94475 -8.25,2.28378 -15.52763,4.67184 -16.1725,5.30679 -0.64488,0.63496 -1.92444,8.57947 -2.84348,17.65447 -0.91904,9.075 -1.85865,16.69223 -2.08802,16.92718 -0.22937,0.23495 -7.89559,-0.0931 -17.03606,-0.72895 -9.14046,-0.63588 -17.04506,-0.89284 -17.56577,-0.57102 -0.5207,0.32181 -4.07491,6.94984 -7.89823,14.72895 -3.82332,7.77911 -7.5314,14.53944 -8.24019,15.02296 -0.84792,0.57843 -6.33949,-1.38824 -16.05577,-5.75 C 289.47808,319.9831 282.30066,317 281.65014,317 c -0.65052,0 -6.34308,5.175 -12.65014,11.5 -6.30706,6.325 -12.15706,11.5 -13,11.5 -0.84294,0 -6.69294,-5.175 -13,-11.5 z m 23.91889,-47.53962 C 334.435,274.03192 379.09493,208.9832 361.98042,142.5 359.04001,131.07763 349.44232,112.12881 341.63629,102.33433 326.28006,83.066386 303.61883,69.000051 278.78557,63.321485 c -10.04776,-2.297599 -35.52338,-2.297599 -45.57114,0 C 190.28597,73.13784 157.26424,106.49473 148.39679,149 c -2.17238,10.41308 -2.4169,31.30332 -0.49161,42 9.25039,51.39404 52.22388,88.14962 106.23887,90.86698 1.45422,0.0732 7.2029,-0.33481 12.77484,-0.9066 z"
       id="path821"
       inkscape:connector-curvature="0" />
    <path
       style="fill:#ff6600;stroke:#000000;stroke-opacity:1;stroke-width:3.18745213;stroke-miterlimit:4;stroke-dasharray:none"
       d="m 244,327.5 c -7.75089,-7.77295 -12.18721,-11.5 -13.68847,-11.5 -1.2216,0 -8.84694,3.02099 -16.9452,6.71331 -8.09827,3.69233 -14.87448,6.26225 -15.05824,5.71096 -1.69134,-5.07403 -14.59287,-29.59632 -15.81848,-30.06663 -0.87333,-0.33513 -8.79411,-0.056 -17.60172,0.6202 -8.80762,0.67624 -16.15589,1.07037 -16.3295,0.87585 -0.1736,-0.19453 -1.05933,-7.77869 -1.96828,-16.85369 -1.18559,-11.83705 -2.06854,-16.81437 -3.12433,-17.61241 -0.80944,-0.61182 -7.43287,-2.80653 -14.71874,-4.87712 -7.28587,-2.0706 -14.21582,-4.12975 -15.39989,-4.57591 l -2.15286,-0.81119 3.87874,-15.31168 c 2.13331,-8.42143 3.88927,-16.21169 3.90213,-17.31169 0.0167,-1.4294 -3.84751,-4.81016 -13.54453,-11.8499 -8.687516,-6.30687 -13.382352,-10.33353 -13.052003,-11.1944 0.283761,-0.73947 4.364655,-6.94646 9.068653,-13.7933 4.704,-6.84685 8.55272,-13.22446 8.55272,-14.17247 0,-0.94801 -4.05,-7.71774 -9,-15.04384 -4.95,-7.32611 -8.984928,-13.68602 -8.966506,-14.13314 0.01842,-0.44712 5.897188,-5.01361 13.063926,-10.14775 7.16674,-5.13414 13.27945,-9.98374 13.58382,-10.7769 0.43125,-1.12384 -4.57558,-23.585551 -7.24217,-32.489856 -0.3903,-1.303302 2.53726,-2.463444 15.72037,-6.229713 8.90999,-2.545486 16.54725,-4.975425 16.97169,-5.399864 0.42444,-0.424438 1.52319,-8.196068 2.44166,-17.270287 0.91848,-9.074219 1.84997,-16.695713 2.06999,-16.936653 0.22002,-0.240941 7.63489,0.08858 16.4775,0.73227 9.92554,0.72252 16.73527,0.818294 17.79658,0.250296 0.94552,-0.506026 4.80245,-7.473048 8.57096,-15.48227 C 195.25633,20.553 198.70248,14 199.14593,14 c 0.44345,0 7.37805,2.943893 15.41021,6.541985 10.27933,4.604732 15.24652,6.343506 16.7739,5.871732 1.19348,-0.36864 7.23294,-5.650617 13.42103,-11.737727 L 256.00215,3.6085166 267.84374,15.304258 C 274.35662,21.736916 280.4373,27 281.35636,27 c 0.91906,0 8.20061,-2.925 16.18123,-6.5 7.98061,-3.575 14.86214,-6.5 15.29229,-6.5 0.43015,0 3.87029,6.549784 7.64476,14.555076 3.77446,8.005292 7.64228,14.972313 8.59514,15.48227 1.0787,0.5773 7.79961,0.485543 17.80994,-0.243149 8.84261,-0.643689 16.25748,-0.973211 16.4775,-0.73227 0.22002,0.24094 1.15151,7.862434 2.06999,16.936653 0.91847,9.074219 2.01722,16.845849 2.44166,17.270287 0.42444,0.424439 8.0617,2.854378 16.97169,5.399864 13.18311,3.766269 16.11067,4.926411 15.72037,6.229713 -2.66659,8.904305 -7.67342,31.366016 -7.24217,32.489856 0.30437,0.79316 6.41708,5.64276 13.58382,10.7769 7.16674,5.13414 13.0455,9.70063 13.06393,10.14775 0.0184,0.44712 -4.01651,6.80703 -8.96651,14.13314 -4.95,7.3261 -9,14.09583 -9,15.04384 0,0.94801 3.84872,7.32562 8.55272,14.17247 4.704,6.84684 8.78489,13.05383 9.06865,13.7933 0.33035,0.86087 -4.36448,4.88753 -13.052,11.1944 -9.69702,7.03974 -13.56125,10.4205 -13.54453,11.8499 0.0129,1.1 1.76882,8.89026 3.90213,17.31169 l 3.87874,15.31168 -2.15286,0.81119 c -1.18407,0.44616 -8.11402,2.50531 -15.39989,4.57591 -7.28587,2.07059 -13.90998,4.2653 -14.72026,4.87712 -1.05676,0.79795 -1.96001,5.86768 -3.19523,17.93423 l -1.72201,16.82183 -11.05773,-0.81861 C 346.47598,298.87481 338.575,298.50499 335,298.50322 l -6.5,-0.003 -7.1884,14.3152 c -3.95362,7.87336 -7.36062,14.83186 -7.57111,15.46332 -0.23944,0.71832 -5.89455,-1.36497 -15.10682,-5.56521 C 290.53541,319.02099 282.91007,316 281.68847,316 c -1.50126,0 -5.93758,3.72705 -13.68847,11.5 -6.30706,6.325 -11.70706,11.5 -12,11.5 -0.29294,0 -5.69294,-5.175 -12,-11.5 z m 28.30348,-45.98947 c 40.99667,-6.17945 74.08963,-33.40021 88.13396,-72.49496 C 372.74261,174.76207 366.91476,134.29459 345.45783,105 305.87976,50.965075 225.55298,44.601458 178.14767,91.745417 139.23314,130.4454 134.05091,191.58295 165.86497,236.65088 c 23.58592,33.4119 65.41836,51.04263 106.43851,44.85965 z"
       id="path819"
       inkscape:connector-curvature="0" />
  </g>
</svg>
