<?xml version="1.0" encoding="UTF-8" standalone="no"?>
<!-- Created with Inkscape (http://www.inkscape.org/) -->

<svg
   xmlns:dc="http://purl.org/dc/elements/1.1/"
   xmlns:cc="http://creativecommons.org/ns#"
   xmlns:rdf="http://www.w3.org/1999/02/22-rdf-syntax-ns#"
   xmlns:svg="http://www.w3.org/2000/svg"
   xmlns="http://www.w3.org/2000/svg"
   xmlns:sodipodi="http://sodipodi.sourceforge.net/DTD/sodipodi-0.dtd"
   xmlns:inkscape="http://www.inkscape.org/namespaces/inkscape"
   version="1.1"
   id="svg844"
   width="297mm"
   height="210mm"
   viewBox="0 0 1122.5197 793.70079"
   sodipodi:docname="title-game.svg"
   inkscape:version="0.92.3 (2405546, 2018-03-11)">
  <metadata
     id="metadata850">
    <rdf:RDF>
      <cc:Work
         rdf:about="">
        <dc:format>image/svg+xml</dc:format>
        <dc:type
           rdf:resource="http://purl.org/dc/dcmitype/StillImage" />
        <dc:title />
      </cc:Work>
    </rdf:RDF>
  </metadata>
  <defs
     id="defs848" />
  <sodipodi:namedview
     pagecolor="#ffffff"
     bordercolor="#666666"
     borderopacity="1"
     objecttolerance="10"
     gridtolerance="10"
     guidetolerance="10"
     inkscape:pageopacity="0"
     inkscape:pageshadow="2"
     inkscape:window-width="1280"
     inkscape:window-height="961"
     id="namedview846"
     showgrid="false"
     units="mm"
     inkscape:zoom="0.70377385"
     inkscape:cx="531.56416"
     inkscape:cy="396.85039"
     inkscape:window-x="-8"
     inkscape:window-y="-8"
     inkscape:window-maximized="1"
     inkscape:current-layer="g1400"
     showguides="true"
     inkscape:guide-bbox="true"
     inkscape:measure-start="0,0"
     inkscape:measure-end="0,0">
    <sodipodi:guide
       position="271.39401,-424.85238"
       orientation="0,1"
       id="guide1502"
       inkscape:locked="false" />
  </sodipodi:namedview>
  <g
     id="g1400"
     transform="translate(2.8418189,-24.155487)">
    <path
       style="fill:#ffcc00;stroke:none;stroke-width:0.56225961px;stroke-linecap:butt;stroke-linejoin:miter;stroke-opacity:1"
       d="m 819.64836,347.74243 147.49142,18.35595 33.90312,11.63543 10.1677,33.52643 -14.56632,22.23152 -25.9401,12.70103 29.1443,44.50555 h -29.6114 l -21.2582,-43.77108 -20.129,-5.51753 -8.02789,48.21611 -28.88413,1.19132 16.05577,-55.90147 c -15.30171,-19.12981 -50.68792,-49.48908 -65.44094,-60.02093 z"
       id="path858-7"
       inkscape:connector-curvature="0"
       sodipodi:nodetypes="ccccccccccccccc" />
    <path
       style="fill:#ff6600;stroke:none;stroke-width:0.79853898px;stroke-linecap:butt;stroke-linejoin:miter;stroke-opacity:1"
       d="m 98.558713,472.97978 -4.51403,-139.28457 56.981437,-26.10878 70.54348,28.06962 2.06997,52.74933 c 0,0 -48.24466,37.5215 -53.80916,34.00523 -17.9763,-11.35945 -40.72098,-13.69582 -40.72098,-13.69582 l 2.44405,82.17491 z"
       id="path854"
       inkscape:connector-curvature="0"
       sodipodi:nodetypes="cccccsccc" />
    <path
       style="fill:#ffffff;stroke:#000000;stroke-width:1.07610488px;stroke-linecap:butt;stroke-linejoin:miter;stroke-opacity:1"
       d="m 129.79433,376.32381 24.54036,-38.58488 39.26455,28.58139 -26.17638,28.5814 z"
       id="path856"
       inkscape:connector-curvature="0"
       sodipodi:nodetypes="ccccc" />
    <path
       style="fill:#9955ff;stroke:none;stroke-width:0.75799632px;stroke-linecap:butt;stroke-linejoin:miter;stroke-opacity:1"
       d="m 151.07641,304.32811 127.38255,10.39552 43.64026,16.42836 13.08819,47.33679 -18.74998,31.38923 -33.39044,17.9329 37.5149,62.83848 h -38.11608 l -27.36376,-61.80145 -25.9102,-7.79035 -10.33357,68.07752 -37.1799,1.68205 20.66712,-78.92866 c 34.14938,-4.15873 56.33848,-10.047 80.18912,-24.66107 l 1.71976,-23.06777 -27.79744,-32.45141 -50.5071,1.08966 z"
       id="path858"
       inkscape:connector-curvature="0"
       sodipodi:nodetypes="cccccccccccccccccc" />
    <path
       style="fill:#ff0066;stroke:none;stroke-width:0.76634908px;stroke-linecap:butt;stroke-linejoin:miter;stroke-opacity:1"
       d="m 405.50348,350.29403 -63.40426,-19.14204 -1.53733,159.4974 H 460.3903 l -10.17411,-32.51584 -68.95786,1.0489 -6.78274,-27.27134 34.0613,3.71011 -0.50556,-25.73697 h -32.42528 l -1.13046,-19.92905 32.78325,-5.24449 z"
       id="path860"
       inkscape:connector-curvature="0"
       sodipodi:nodetypes="ccccccccccccc" />
    <path
       style="fill:#2ca02c;stroke:none;stroke-width:0.7012617px;stroke-linecap:butt;stroke-linejoin:miter;stroke-opacity:1"
       d="m 440.19035,347.17417 86.96377,9.48101 47.59201,42.88737 -1.63602,47.03626 -26.82441,44.07058 h -85.8954 v -18.13223 l 49.28163,0.90661 15.33207,-22.6653 c 0,0 3.28545,-26.29173 -1.09515,-26.29173 -4.38059,0 -21.90295,-20.85208 -21.90295,-20.85208 l -55.27145,-9.34272 z"
       id="path862"
       inkscape:connector-curvature="0"
       sodipodi:nodetypes="cccccccccsccc" />
    <path
       style="fill:#00aad4;stroke:none;stroke-width:1.07610488px;stroke-linecap:butt;stroke-linejoin:miter;stroke-opacity:1"
       d="m 570.9728,489.22032 67.07696,-138.61976 101.43345,141.47791 -107.97751,-1.42908 11.45213,-28.5814 42.53661,1.42908 -39.26456,-50.01744 -35.99251,75.74069 z"
       id="path864"
       inkscape:connector-curvature="0"
       sodipodi:nodetypes="ccccccccc" />
    <path
       style="fill:#ffffff;stroke:none;stroke-width:1.07610488px;stroke-linecap:butt;stroke-linejoin:miter;stroke-opacity:1"
       d="m 765.65959,490.64939 1.63603,-117.1837 c 28.8433,4.06543 42.85805,-8.27039 75.25707,1.42907 l -22.90433,-27.15233 c -49.1942,1.90061 -45.20956,3.85751 -88.34526,-4.28721 l 8.18011,148.62325 z"
       id="path866"
       inkscape:connector-curvature="0"
       sodipodi:nodetypes="ccccccc" />
    <path
       style="fill:#d40000;stroke:none;stroke-width:1.07610488px;stroke-linecap:butt;stroke-linejoin:miter;stroke-opacity:1"
       d="m 842.55269,374.89476 51.07664,3.62984 24.18043,27.8097 2.99822,57.01556 -68.43914,35.87396 -56.04241,-23.96843 -17.57864,-41.76878 17.15832,-40.71019 z"
       id="path868"
       inkscape:connector-curvature="0"
       sodipodi:nodetypes="ccccccccc" />
    <path
       style="fill:#ffffff;stroke:#000000;stroke-width:1.07610488px;stroke-linecap:butt;stroke-linejoin:miter;stroke-opacity:1"
       d="m 814.74029,433.4866 3.81098,-21.03255 25.63743,-8.97791 26.58142,12.55396 6.13905,20.31464 -4.48115,19.11756 -21.69522,8.03476 -24.94891,-6.77148 z"
       id="path870"
       inkscape:connector-curvature="0"
       sodipodi:nodetypes="ccccccccc" />
    <path
       style="fill:#ffffff;stroke:none;stroke-width:1.07610488px;stroke-linecap:butt;stroke-linejoin:miter;stroke-opacity:1"
       d="m 732.86245,490.48713 -1.63603,-117.1837 c -28.8433,4.06543 -42.85805,-8.27039 -75.25707,1.42908 l 22.90433,-27.15234 c 49.1942,1.90061 45.20956,3.85752 88.34526,-4.2872 l -8.18011,148.62324 z"
       id="path866-0"
       inkscape:connector-curvature="0"
       sodipodi:nodetypes="ccccccc" />
  </g>
</svg>
